<svg xmlns="http://www.w3.org/2000/svg" width="24" height="24" viewBox="0 0 24 24" fill="currentColor"><path d="M18.816 14.88c.036-.204.06-.408.06-.624V9.6c0-.216-.024-.42-.06-.624l1.584-1.296c.264-.216.324-.588.132-.864l-.96-1.656c-.192-.3-.552-.42-.864-.3L16.2 5.808c-.516-.384-1.092-.684-1.704-.888V2.4a.6.6 0 0 0-.6-.6H10.1a.6.6 0 0 0-.6.6v2.52c-.612.204-1.188.504-1.704.888l-2.508-.888c-.312-.12-.672 0-.864.3l-.96 1.656c-.192.276-.132.648.132.864L5.184 9.6c-.036.204-.06.408-.06.624v4.656c0 .216.024.42.06.624l-1.584 1.296c-.264.216-.324.588-.132.864l.96 1.656c.192.3.552.42.864.3l2.508-.888c.516.384 1.092.684 1.704.888v2.52a.6.6 0 0 0 .6.6h3.6a.6.6 0 0 0 .6-.6v-2.52c.612-.204 1.188-.504 1.704-.888l2.508.888c.312.12.672 0 .864-.3l.96-1.656c.192-.276.132-.648-.132-.864l-1.584-1.296zM9.5 7.75a1 1 0 1 1 0 2 1 1 0 0 1 0-2zm5 8.5a1 1 0 1 1 0-2 1 1 0 0 1 0 2z"/></svg> 