<svg xmlns="http://www.w3.org/2000/svg" width="24" height="24" viewBox="0 0 24 24" fill="currentColor"><path d="M17.28 10.488c.348-.564.552-1.2.552-1.884 0-.684-.204-1.32-.552-1.884l1.86-1.56c.396-.324.468-.888.18-1.284l-1.116-1.932c-.288-.492-.888-.672-1.38-.456l-2.184.864c-.6-.444-1.272-.792-2-.996V.48c0-.528-.432-.96-.96-.96h-2.232c-.528 0-.96.432-.96.96v2.88c-.72.204-1.392.552-2 .996l-2.184-.864c-.492-.216-1.092-.036-1.38.456L2.364 5.856c-.288.396-.216.96.18 1.284l1.86 1.56c-.348.564-.552 1.2-.552 1.884 0 .684.204 1.32.552 1.884l-1.86 1.56c-.396.324-.468.888-.18 1.284l1.116 1.932c.288.492.888.672 1.38.456l2.184-.864c.6.444 1.272.792 2 .996v2.88c0 .528.432.96.96.96h2.232c.528 0 .96-.432.96-.96v-2.88c.72-.204 1.392-.552 2-.996l2.184.864c.492.216 1.092.036 1.38-.456l1.116-1.932c.288-.396.216-.96-.18-1.284l-1.86-1.56zm-5.28 2.4c-1.656 0-3-1.344-3-3s1.344-3 3-3 3 1.344 3 3-1.344 3-3 3z"/></svg> 